<svg id="Camada_1" data-name="Camada 1" xmlns="http://www.w3.org/2000/svg" width="175" height="30" viewBox="0 0 171.52 17.17"><path d="M2.53,7.47a30.11,30.11,0,0,1,4.72-.35A9,9,0,0,1,12,8,3.5,3.5,0,0,1,14,11.22a3.64,3.64,0,0,1-2.65,3.44v.06a4,4,0,0,1,3.22,4,4.28,4.28,0,0,1-1.69,3.43c-1.18,1-3.14,1.48-6.36,1.48a28.18,28.18,0,0,1-4-.24Zm3.62,6.2H7.34c1.94,0,2.95-.81,2.95-2S9.36,9.78,7.7,9.78a7,7,0,0,0-1.55.12Zm0,7.15a8.89,8.89,0,0,0,1.41.07c1.66,0,3.12-.64,3.12-2.35S9.23,16.28,7.4,16.28H6.15Z" transform="translate(-2.53 -6.51)" style="fill:#00473e"/><path d="M17,7.47a30.83,30.83,0,0,1,4.87-.35c2.4,0,4.08.37,5.23,1.29a4.08,4.08,0,0,1,1.5,3.39,4.29,4.29,0,0,1-2.86,4v.08a4.06,4.06,0,0,1,2.16,3,46.1,46.1,0,0,0,1.31,4.57H25.48a21.35,21.35,0,0,1-1.11-3.77c-.45-2-1.13-2.57-2.63-2.58H20.65v6.35H17Zm3.63,7h1.43c1.82,0,2.9-.93,2.9-2.33S24,9.86,22.3,9.85a8.05,8.05,0,0,0-1.65.12Z" transform="translate(-2.53 -6.51)" style="fill:#00473e"/><path d="M35.22,19.27l-1.14,4.16H30.3L35.23,7.25H40l5,16.18H41.12l-1.25-4.16Zm4.11-2.72-1-3.44c-.27-1-.56-2.17-.81-3.11h0c-.24.95-.48,2.18-.74,3.12l-1,3.43Z" transform="translate(-2.53 -6.51)" style="fill:#00473e"/><path d="M47.33,19.65a9.08,9.08,0,0,0,4.06,1c1.68,0,2.57-.7,2.57-1.76s-.77-1.58-2.71-2.27c-2.7-1-4.46-2.42-4.46-4.79C46.79,9.1,49.11,7,52.91,7A9.56,9.56,0,0,1,57,7.81l-.81,2.94A7.68,7.68,0,0,0,52.85,10c-1.59,0-2.35.73-2.35,1.56,0,1,.9,1.48,3,2.28,2.86,1.07,4.19,2.55,4.19,4.84,0,2.7-2.07,5-6.52,5a10.38,10.38,0,0,1-4.57-1Z" transform="translate(-2.53 -6.51)" style="fill:#00473e"/><path d="M63.83,7.25V23.43H60.18V7.25Z" transform="translate(-2.53 -6.51)" style="fill:#00473e"/><path d="M67,7.25h3.65V20.36h6.44v3.07H67Z" transform="translate(-2.53 -6.51)" style="fill:#00473e"/><path d="M78.52,9.85H74.15V6.78H86.6V9.85H82.18V23H78.52Z" transform="translate(-2.53 -6.51)" style="fill:#faae2b"/><path d="M92.18,6.78v9.3c0,2.8,1.07,4.22,2.93,4.22s3-1.35,3-4.22V6.78h3.66v9.08c0,5-2.53,7.36-6.76,7.36S88.52,21,88.52,15.81v-9Z" transform="translate(-2.53 -6.51)" style="fill:#faae2b"/><path d="M104.91,7a30.83,30.83,0,0,1,4.87-.35c2.39,0,4.08.37,5.23,1.28a4.11,4.11,0,0,1,1.5,3.39,4.3,4.3,0,0,1-2.86,4v.08a4,4,0,0,1,2.16,3A46.1,46.1,0,0,0,117.12,23h-3.75a20.41,20.41,0,0,1-1.11-3.78c-.45-2-1.13-2.56-2.63-2.58h-1.09V23h-3.63Zm3.63,7H110c1.82,0,2.9-.93,2.9-2.33s-1-2.24-2.68-2.25a8.05,8.05,0,0,0-1.65.12Z" transform="translate(-2.53 -6.51)" style="fill:#faae2b"/><path d="M122.8,6.78V23h-3.65V6.78Z" transform="translate(-2.53 -6.51)" style="fill:#faae2b"/><path d="M126.1,19.18a9,9,0,0,0,4.06,1c1.68,0,2.57-.7,2.57-1.77S132,16.85,130,16.17c-2.7-1-4.46-2.43-4.46-4.79,0-2.76,2.32-4.85,6.12-4.85a9.56,9.56,0,0,1,4.13.81L135,10.27a7.82,7.82,0,0,0-3.38-.77c-1.59,0-2.35.74-2.35,1.57,0,1,.9,1.48,3,2.27,2.86,1.07,4.19,2.56,4.19,4.85,0,2.7-2.07,5-6.53,5a10.37,10.37,0,0,1-4.56-1Z" transform="translate(-2.53 -6.51)" style="fill:#faae2b"/><path d="M152.62,16.77c-.08-2-.15-4.3-.14-6.67h-.07c-.51,2.07-1.2,4.37-1.8,6.28l-2,6.31h-2.84L144,16.44c-.52-1.91-1.06-4.2-1.46-6.34h-.05c-.08,2.2-.17,4.7-.27,6.72L142,23h-3.38l1-16.18h4.88l1.58,5.4c.51,1.86,1,3.89,1.37,5.79h.07c.45-1.87,1-4,1.54-5.81l1.72-5.38h4.79L156.42,23h-3.55Z" transform="translate(-2.53 -6.51)" style="fill:#faae2b"/><path d="M174,14.7c0,5.31-3.2,8.52-7.93,8.52s-7.62-3.63-7.62-8.24c0-4.84,3.11-8.47,7.88-8.47C171.33,6.51,174,10.23,174,14.7Zm-11.68.21c0,3.17,1.49,5.4,3.93,5.4s3.89-2.34,3.89-5.48c0-2.92-1.38-5.41-3.9-5.41S162.36,11.76,162.36,14.91Z" transform="translate(-2.53 -6.51)" style="fill:#faae2b"/></svg>